<svg width="222" height="223" viewBox="0 0 222 223" fill="none" xmlns="http://www.w3.org/2000/svg">
    <path fill="#2a2727" d="M121.436 105.715C114.436 105.715 114.436 116.715 121.436 116.715C128.436 116.715 135.436 121.715 133.436 128.715C131.436 143.715 106.436 143.715 95.4363 132.715C83.4363 120.715 88.4363 101.715 100.436 91.7153C117.436 76.7153 145.436 79.7153 160.436 94.7153C180.436 114.715 172.436 144.715 152.436 160.715C128.436 181.715 88.4363 180.715 65.4363 157.715C38.4363 130.715 49.4363 89.7153 76.4363 67.7153C108.436 39.7153 160.436 39.7153 190.436 69.7153C224.436 104.715 211.436 156.715 177.436 185.715C137.436 218.715 73.4363 220.715 35.4363 182.715C-5.56372 140.715 10.4363 78.7153 51.4363 42.7153C73.4363 24.7153 102.436 12.7153 133.436 11.7153C140.436 11.7153 140.436 0.715332 132.436 0.715332C99.4363 1.71533 68.4363 14.7153 44.4363 34.7153C-1.56372 73.7153 -18.5637 143.715 27.4363 190.715C69.4363 232.715 140.436 231.715 184.436 193.715C223.436 160.715 237.436 101.715 198.436 62.7153C164.436 27.7153 105.436 27.7153 69.4363 58.7153C37.4363 85.7153 26.4363 133.715 57.4363 165.715C84.4363 192.715 130.436 194.715 160.436 169.715C184.436 148.715 192.436 111.715 168.436 87.7153C149.436 67.7153 115.436 64.7153 93.4363 82.7153C76.4363 97.7153 70.4363 123.715 87.4363 140.715C104.436 157.715 139.436 155.715 144.436 130.715C147.436 116.715 134.436 105.715 121.436 105.715Z"/>
</svg>
