<svg width="104" height="29" viewBox="0 0 104 29" fill="none" xmlns="http://www.w3.org/2000/svg">
<path d="M39.8559 11.4149C40.0163 11.4149 40.1804 11.3821 40.3481 11.3164C40.5158 11.2435 40.5996 11.1487 40.5996 11.0321C40.5996 11.0175 40.5085 10.7732 40.3262 10.2993L39.9981 9.50082C39.9689 9.47166 39.9434 9.45707 39.9215 9.45707C39.783 9.44978 39.433 9.44614 38.8715 9.44614C38.3903 9.44614 38.022 9.44978 37.7668 9.45707C37.7377 9.45707 37.7121 9.4753 37.6903 9.51176C37.6903 9.51176 37.57 9.78884 37.3293 10.343C37.1835 10.6711 37.1106 10.8935 37.1106 11.0102C37.1106 11.1269 37.1762 11.218 37.3075 11.2836C37.4387 11.3493 37.5517 11.3894 37.6465 11.4039C37.7486 11.4112 37.8361 11.4149 37.909 11.4149C37.9309 11.4222 37.9418 11.4805 37.9418 11.5899C37.9418 11.6993 37.9345 11.7758 37.92 11.8196C37.8252 11.8123 37.6319 11.7977 37.3403 11.7758C37.0559 11.7467 36.8226 11.7321 36.6403 11.7321C36.458 11.7321 36.2392 11.7467 35.984 11.7758C35.7288 11.7977 35.5319 11.8123 35.3934 11.8196C35.3642 11.7904 35.3496 11.7357 35.3496 11.6555C35.3496 11.5024 35.3569 11.4258 35.3715 11.4258C35.459 11.4258 35.6048 11.3894 35.809 11.3164C36.0132 11.2362 36.1408 11.156 36.1918 11.0758C36.2502 10.9883 36.3085 10.8826 36.3668 10.7586C36.4325 10.6274 36.4835 10.5217 36.52 10.4414L36.5746 10.3102L38.9918 4.75395C39.072 4.56437 39.2069 4.46957 39.3965 4.46957C39.5059 4.46957 39.5934 4.51697 39.659 4.61176L41.9012 10.1571C42.0397 10.4925 42.1601 10.7914 42.2621 11.0539C42.3059 11.1706 42.4262 11.2618 42.6231 11.3274C42.82 11.3857 42.9694 11.4149 43.0715 11.4149C43.1007 11.4149 43.1153 11.4769 43.1153 11.6008C43.1153 11.7248 43.108 11.7977 43.0934 11.8196C43.0642 11.8196 42.8382 11.805 42.4153 11.7758C41.9996 11.7467 41.697 11.7321 41.5075 11.7321C41.4564 11.7321 40.9059 11.7612 39.8559 11.8196C39.8267 11.7904 39.8121 11.7175 39.8121 11.6008C39.8121 11.4769 39.8267 11.4149 39.8559 11.4149ZM38.0621 8.75707C38.2809 8.77895 38.5507 8.78989 38.8715 8.78989C39.1632 8.78989 39.422 8.78259 39.6481 8.76801L39.6809 8.71332L38.8934 6.75551L38.0403 8.71332C38.0403 8.74249 38.0476 8.75707 38.0621 8.75707Z" fill="#2A2727"/>
<path d="M47.4684 4.60082C47.6142 4.60082 47.8184 4.59353 48.0809 4.57895C48.3507 4.55707 48.5293 4.54249 48.6168 4.5352C48.6897 4.76853 48.9887 5.45759 49.5137 6.60239C50.0387 7.73989 50.4288 8.62582 50.684 9.2602H50.7059C50.7205 9.2602 50.7278 9.25655 50.7278 9.24926C51.2892 7.85655 51.734 6.70812 52.0621 5.80395L52.4231 4.57895C52.5543 4.59353 52.8496 4.60082 53.309 4.60082C53.3528 4.60082 53.8121 4.57895 54.6871 4.5352C54.7163 4.57895 54.7309 4.63728 54.7309 4.7102C54.7309 4.86332 54.7127 4.93989 54.6762 4.93989H54.6653C54.483 4.93989 54.3298 4.98364 54.2059 5.07114C54.0965 5.15134 54.0455 5.30082 54.0528 5.51957C54.0673 5.81124 54.1038 6.56593 54.1621 7.78364C54.2205 9.00134 54.2569 9.77791 54.2715 10.1133C54.2934 10.5581 54.3481 10.8935 54.4356 11.1196C54.4647 11.1852 54.5595 11.2508 54.72 11.3164C54.8877 11.3821 55.0043 11.4149 55.07 11.4149C55.0991 11.4149 55.1137 11.4878 55.1137 11.6336C55.1137 11.7138 55.1064 11.7758 55.0918 11.8196C55.0116 11.8123 54.8075 11.7977 54.4793 11.7758C54.1512 11.7467 53.8923 11.7321 53.7028 11.7321C53.5059 11.7321 53.2179 11.7467 52.8387 11.7758C52.4595 11.7977 52.2189 11.8123 52.1168 11.8196C52.0804 11.7831 52.0621 11.7248 52.0621 11.6446C52.0621 11.4914 52.0731 11.4149 52.095 11.4149C52.1752 11.4149 52.2991 11.3821 52.4668 11.3164C52.6345 11.2508 52.7366 11.1816 52.7731 11.1086C52.8314 10.9993 52.8606 10.8972 52.8606 10.8024C52.8606 10.6347 52.8533 10.4196 52.8387 10.1571L52.7512 7.37895C52.722 6.89041 52.6929 6.64614 52.6637 6.64614C52.6491 6.64614 52.6309 6.67166 52.609 6.7227L50.7168 11.4368C50.6877 11.5097 50.6293 11.5899 50.5418 11.6774C50.4543 11.7576 50.3668 11.7977 50.2793 11.7977C50.2575 11.7977 50.2246 11.7904 50.1809 11.7758L47.7746 6.3727L47.5887 10.5836C47.5887 10.7951 47.5923 10.9263 47.5996 10.9774C47.6215 11.0722 47.7819 11.1706 48.0809 11.2727C48.3798 11.3675 48.5767 11.4149 48.6715 11.4149C48.7007 11.4149 48.7153 11.4878 48.7153 11.6336C48.7153 11.7138 48.708 11.7758 48.6934 11.8196C48.6351 11.8196 48.4163 11.805 48.0371 11.7758C47.658 11.7467 47.3736 11.7321 47.184 11.7321C46.9944 11.7321 46.7319 11.7467 46.3965 11.7758C46.0611 11.7977 45.8351 11.8123 45.7184 11.8196C45.6892 11.7904 45.6746 11.7284 45.6746 11.6336C45.6746 11.4951 45.6856 11.4258 45.7075 11.4258C45.8387 11.4258 46.0502 11.3711 46.3418 11.2618C46.6408 11.1524 46.7976 11.0211 46.8121 10.868C46.8267 10.7003 46.8413 10.5253 46.8559 10.343C46.8778 9.96384 46.9033 9.40603 46.9325 8.66957C46.9616 7.92582 46.9871 7.21124 47.009 6.52582C47.0309 5.84041 47.0455 5.4503 47.0528 5.35551C47.0528 5.2753 47.0418 5.20968 47.02 5.15864C46.9981 5.1003 46.8814 5.04926 46.67 5.00551C46.4585 4.95447 46.3054 4.92895 46.2106 4.92895C46.1814 4.92895 46.1668 4.85239 46.1668 4.69926C46.1668 4.61905 46.1814 4.56437 46.2106 4.5352C46.3127 4.54249 46.4986 4.55707 46.7684 4.57895C47.0455 4.59353 47.2788 4.60082 47.4684 4.60082Z" fill="#2A2727"/>
<path d="M57.7387 11.0649C57.9283 11.0649 58.0741 11.0211 58.1762 10.9336C58.2856 10.8388 58.3403 10.7258 58.3403 10.5946V9.48989C58.3257 9.49718 58.2528 9.5227 58.1215 9.56645C57.9976 9.60291 57.9174 9.62843 57.8809 9.64301C57.8444 9.65759 57.7752 9.68676 57.6731 9.73051C57.571 9.76697 57.4981 9.80343 57.4543 9.83989C57.4179 9.86905 57.3705 9.90916 57.3121 9.9602C57.2538 10.0112 57.2137 10.0659 57.1918 10.1243C57.17 10.1826 57.159 10.2482 57.159 10.3211C57.159 10.5836 57.2137 10.7732 57.3231 10.8899C57.4397 11.0066 57.5783 11.0649 57.7387 11.0649ZM58.1762 6.86489C58.6866 6.86489 59.0767 7.00707 59.3465 7.29145C59.6236 7.56853 59.7621 8.0753 59.7621 8.81176V10.5836C59.7621 10.8316 59.8496 10.9555 60.0246 10.9555C60.1486 10.9555 60.2726 10.9081 60.3965 10.8133C60.4476 10.8425 60.4731 10.8972 60.4731 10.9774C60.4731 11.1597 60.4476 11.2946 60.3965 11.3821C60.2944 11.4769 60.1267 11.5789 59.8934 11.6883C59.6673 11.7904 59.4522 11.8414 59.2481 11.8414C59.0731 11.8414 58.9054 11.7904 58.745 11.6883C58.5845 11.5789 58.4788 11.455 58.4278 11.3164C58.4205 11.3164 58.3913 11.3383 58.3403 11.3821C58.2892 11.4185 58.2236 11.4623 58.1434 11.5133C58.0632 11.5644 57.9684 11.6154 57.859 11.6664C57.7569 11.7175 57.633 11.7612 57.4871 11.7977C57.3413 11.8342 57.1955 11.8524 57.0496 11.8524C56.6486 11.8524 56.3278 11.743 56.0871 11.5243C55.8538 11.2982 55.7371 11.0175 55.7371 10.6821C55.7371 10.4852 55.7809 10.3066 55.8684 10.1461C55.9632 9.97843 56.0689 9.84353 56.1856 9.74145C56.3095 9.63207 56.4736 9.53364 56.6778 9.44614C56.8819 9.35134 57.0569 9.28207 57.2028 9.23832C57.3486 9.18728 57.5345 9.13259 57.7606 9.07426C57.9939 9.00864 58.1543 8.96124 58.2418 8.93207C58.3075 8.9102 58.3403 8.85551 58.3403 8.76801V8.37426C58.3403 7.77634 58.158 7.47739 57.7934 7.47739C57.3705 7.47739 57.159 7.72166 57.159 8.2102C57.159 8.37062 57.0934 8.49093 56.9621 8.57114C56.8309 8.64405 56.6851 8.68051 56.5246 8.68051C56.1892 8.68051 55.9595 8.57114 55.8356 8.35239C55.8356 7.98051 56.0799 7.64145 56.5684 7.3352C57.0642 7.02166 57.6002 6.86489 58.1762 6.86489Z" fill="#2A2727"/>
<path d="M61.8075 7.72895H61.0965C61.0382 7.72895 61.009 7.61593 61.009 7.38989C61.009 7.33155 61.0163 7.29145 61.0309 7.26957C61.4392 7.06541 61.7673 6.86853 62.0153 6.67895C62.1246 6.59874 62.2522 6.49666 62.3981 6.3727C62.5439 6.24145 62.6679 6.13207 62.77 6.04457C62.8793 5.94978 62.9377 5.89874 62.945 5.89145C63.0033 5.89145 63.0653 5.90603 63.1309 5.9352C63.1965 5.95707 63.2293 5.98259 63.2293 6.01176V7.08364H64.4106C64.4689 7.08364 64.4981 7.12009 64.4981 7.19301C64.4981 7.40447 64.4616 7.58312 64.3887 7.72895H63.2293V10.3211C63.2293 10.8753 63.4262 11.1524 63.82 11.1524C63.9293 11.1524 64.0278 11.1414 64.1153 11.1196C64.2101 11.0904 64.283 11.0612 64.334 11.0321C64.3851 11.0029 64.4142 10.9883 64.4215 10.9883C64.4507 10.9883 64.4798 11.0248 64.509 11.0977C64.5455 11.1706 64.5637 11.2253 64.5637 11.2618C64.5637 11.3493 64.4142 11.4696 64.1153 11.6227C63.8163 11.7758 63.5356 11.8524 63.2731 11.8524C62.872 11.8524 62.5257 11.7284 62.234 11.4805C61.9496 11.2253 61.8075 10.817 61.8075 10.2555V7.72895Z" fill="#2A2727"/>
<path d="M65.8981 7.72895H65.1871C65.1288 7.72895 65.0996 7.61593 65.0996 7.38989C65.0996 7.33155 65.1069 7.29145 65.1215 7.26957C65.5298 7.06541 65.858 6.86853 66.1059 6.67895C66.2153 6.59874 66.3429 6.49666 66.4887 6.3727C66.6345 6.24145 66.7585 6.13207 66.8606 6.04457C66.97 5.94978 67.0283 5.89874 67.0356 5.89145C67.0939 5.89145 67.1559 5.90603 67.2215 5.9352C67.2871 5.95707 67.32 5.98259 67.32 6.01176V7.08364H68.5012C68.5595 7.08364 68.5887 7.12009 68.5887 7.19301C68.5887 7.40447 68.5522 7.58312 68.4793 7.72895H67.32V10.3211C67.32 10.8753 67.5168 11.1524 67.9106 11.1524C68.02 11.1524 68.1184 11.1414 68.2059 11.1196C68.3007 11.0904 68.3736 11.0612 68.4246 11.0321C68.4757 11.0029 68.5048 10.9883 68.5121 10.9883C68.5413 10.9883 68.5705 11.0248 68.5996 11.0977C68.6361 11.1706 68.6543 11.2253 68.6543 11.2618C68.6543 11.3493 68.5048 11.4696 68.2059 11.6227C67.9069 11.7758 67.6262 11.8524 67.3637 11.8524C66.9627 11.8524 66.6163 11.7284 66.3246 11.4805C66.0403 11.2253 65.8981 10.817 65.8981 10.2555V7.72895Z" fill="#2A2727"/>
<path d="M71.5309 7.48832C71.2465 7.48832 71.0387 7.62687 70.9075 7.90395C70.7762 8.17374 70.7106 8.43989 70.7106 8.70239C70.7106 8.74614 70.7361 8.76801 70.7871 8.76801H72.1762C72.2783 8.76801 72.3293 8.69874 72.3293 8.5602C72.3293 8.28312 72.2528 8.0352 72.0996 7.81645C71.9538 7.5977 71.7642 7.48832 71.5309 7.48832ZM71.5856 6.88676C72.2418 6.88676 72.7668 7.11645 73.1606 7.57582C73.5616 8.02791 73.7621 8.49093 73.7621 8.96489C73.7621 9.1326 73.7257 9.24197 73.6528 9.29301C73.5871 9.34405 73.4522 9.36957 73.2481 9.36957H70.7762C70.7325 9.36957 70.7106 9.39509 70.7106 9.44614C70.7106 9.83989 70.82 10.1935 71.0387 10.5071C71.2647 10.8206 71.5856 10.9774 72.0012 10.9774C72.2418 10.9774 72.4715 10.9446 72.6903 10.8789C72.909 10.806 73.0621 10.7441 73.1496 10.693C73.2371 10.6347 73.3538 10.5508 73.4996 10.4414C73.5653 10.4706 73.5981 10.5399 73.5981 10.6493C73.5981 10.7368 73.5835 10.8097 73.5543 10.868C73.4814 11.043 73.2627 11.2508 72.8981 11.4914C72.5335 11.7321 72.1252 11.8524 71.6731 11.8524C71.0022 11.8524 70.4226 11.6081 69.934 11.1196C69.4528 10.631 69.2121 10.0441 69.2121 9.35864C69.2121 8.65864 69.4309 8.07166 69.8684 7.5977C70.3059 7.12374 70.8783 6.88676 71.5856 6.88676Z" fill="#2A2727"/>
<path d="M77.8309 6.88676C78.1517 6.88676 78.4653 7.02166 78.7715 7.29145C78.7715 7.67062 78.7241 7.95134 78.6293 8.13364C78.5418 8.31593 78.3778 8.40707 78.1371 8.40707C77.9913 8.40707 77.8236 8.32322 77.634 8.15551C77.4444 7.9878 77.2767 7.90395 77.1309 7.90395C76.9121 7.90395 76.7554 8.02791 76.6606 8.27582C76.5731 8.51645 76.5293 8.7753 76.5293 9.05239V10.1571C76.5293 10.6164 76.5548 10.9446 76.6059 11.1414C76.6205 11.1925 76.7153 11.2508 76.8903 11.3164C77.0726 11.3821 77.1929 11.4149 77.2512 11.4149C77.2731 11.4149 77.284 11.4769 77.284 11.6008C77.2913 11.7175 77.2877 11.7904 77.2731 11.8196C77.1856 11.8123 76.9632 11.7977 76.6059 11.7758C76.2486 11.7467 75.9861 11.7321 75.8184 11.7321C75.6434 11.7321 75.37 11.7467 74.9981 11.7758C74.6262 11.7977 74.4002 11.8123 74.32 11.8196C74.2908 11.7904 74.2762 11.7175 74.2762 11.6008C74.2762 11.4769 74.2908 11.4149 74.32 11.4149C74.4002 11.4149 74.5351 11.3821 74.7246 11.3164C74.9142 11.2508 75.0163 11.1925 75.0309 11.1414C75.0819 10.9227 75.1075 10.6456 75.1075 10.3102V8.81176C75.1075 8.40343 75.0418 8.12999 74.9106 7.99145C74.8595 7.93312 74.783 7.88572 74.6809 7.84926C74.5788 7.8128 74.4913 7.78728 74.4184 7.7727C74.3455 7.75812 74.309 7.74718 74.309 7.73989C74.309 7.48468 74.3272 7.35707 74.3637 7.35707C74.4512 7.35707 74.597 7.33884 74.8012 7.30239C75.0054 7.25864 75.2715 7.2003 75.5996 7.12739C75.9278 7.05447 76.183 6.99978 76.3653 6.96332C76.4382 6.94145 76.4783 6.93051 76.4856 6.93051C76.522 6.93051 76.5585 6.95603 76.595 7.00707C76.6314 7.05082 76.6496 7.08728 76.6496 7.11645C76.6351 7.20395 76.6241 7.29874 76.6168 7.40082C76.6095 7.50291 76.6022 7.56853 76.595 7.5977C76.9522 7.12374 77.3642 6.88676 77.8309 6.88676Z" fill="#2A2727"/>
<path d="M37.9309 18.4883C37.7194 18.4883 37.5444 18.5722 37.4059 18.7399C37.2673 18.9076 37.1762 19.1008 37.1325 19.3196C37.0887 19.531 37.0668 19.768 37.0668 20.0305C37.0668 21.5107 37.4423 22.2508 38.1934 22.2508C38.4996 22.2508 38.722 22.1013 38.8606 21.8024C39.0064 21.5034 39.0793 21.1534 39.0793 20.7524C39.0793 19.243 38.6965 18.4883 37.9309 18.4883ZM36.2575 18.6086C36.7606 18.1274 37.3694 17.8868 38.084 17.8868C38.7986 17.8868 39.4038 18.1274 39.8996 18.6086C40.4028 19.0899 40.6543 19.6769 40.6543 20.3696C40.6543 21.0623 40.4064 21.6493 39.9106 22.1305C39.4147 22.6118 38.8059 22.8524 38.084 22.8524C37.3694 22.8524 36.7606 22.6118 36.2575 22.1305C35.7616 21.6493 35.5137 21.0623 35.5137 20.3696C35.5137 19.6769 35.7616 19.0899 36.2575 18.6086Z" fill="#2A2727"/>
<path d="M44.6246 15.1633C44.9455 15.1633 45.2226 15.1998 45.4559 15.2727C45.6965 15.3456 45.846 15.4331 45.9043 15.5352C45.9262 15.6737 45.9371 15.8232 45.9371 15.9836C45.9371 16.1368 45.8897 16.2789 45.795 16.4102C45.7002 16.5342 45.5653 16.5961 45.3903 16.5961C45.2371 16.5961 45.1022 16.5342 44.9856 16.4102C44.8762 16.2789 44.7668 16.1513 44.6575 16.0274C44.5554 15.9034 44.4351 15.8414 44.2965 15.8414C44.0632 15.8414 43.8918 16.0092 43.7825 16.3446C43.6731 16.68 43.6184 17.092 43.6184 17.5805V18.0289C43.6184 18.0654 43.6366 18.0836 43.6731 18.0836H44.8871C44.9236 18.0836 44.9418 18.1092 44.9418 18.1602C44.9418 18.3644 44.8981 18.5539 44.8106 18.7289H43.684C43.6403 18.7289 43.6184 18.7508 43.6184 18.7946V21.1461C43.6184 21.6128 43.6439 21.9446 43.695 22.1414C43.7095 22.1925 43.8116 22.2508 44.0012 22.3164C44.1908 22.3821 44.3184 22.4149 44.384 22.4149C44.4059 22.4149 44.4168 22.4769 44.4168 22.6008C44.4241 22.7175 44.4205 22.7904 44.4059 22.8196C44.3257 22.8123 44.096 22.7977 43.7168 22.7758C43.345 22.7467 43.0752 22.7321 42.9075 22.7321C42.7325 22.7321 42.459 22.7467 42.0871 22.7758C41.7153 22.7977 41.4892 22.8123 41.409 22.8196C41.3798 22.7904 41.3653 22.7175 41.3653 22.6008C41.3653 22.4769 41.3798 22.4149 41.409 22.4149C41.4892 22.4149 41.6241 22.3821 41.8137 22.3164C42.0033 22.2508 42.1054 22.1925 42.12 22.1414C42.171 21.9227 42.1965 21.6456 42.1965 21.3102V18.8055C42.1965 18.7545 42.1783 18.7289 42.1418 18.7289H41.409C41.3871 18.7289 41.3762 18.7071 41.3762 18.6633C41.3762 18.5685 41.42 18.4482 41.5075 18.3024C41.6022 18.1493 41.7116 18.0727 41.8356 18.0727H42.1418C42.1783 18.0727 42.1965 18.0508 42.1965 18.0071V17.9305C42.1965 17.1722 42.4262 16.5232 42.8856 15.9836C43.3522 15.4441 43.9319 15.1706 44.6246 15.1633Z" fill="#2A2727"/>
<path d="M49.3168 15.568C49.5283 15.568 49.758 15.5644 50.0059 15.5571C50.2611 15.5425 50.4981 15.5352 50.7168 15.5352C51.147 15.5352 51.5517 15.5935 51.9309 15.7102C52.3101 15.8269 52.6418 16.0456 52.9262 16.3664C53.2106 16.68 53.3528 17.0701 53.3528 17.5368C53.3528 18.1274 53.1231 18.6378 52.6637 19.068C52.2116 19.4982 51.6611 19.7133 51.0121 19.7133C50.8955 19.7133 50.7788 19.6951 50.6621 19.6586C50.5455 19.6222 50.458 19.5894 50.3996 19.5602C50.3413 19.5237 50.3048 19.4946 50.2903 19.4727C50.2611 19.4289 50.2429 19.3487 50.2356 19.2321C50.2283 19.1154 50.2429 19.0571 50.2793 19.0571C50.3741 19.1154 50.5382 19.1446 50.7715 19.1446C51.384 19.1446 51.6903 18.6487 51.6903 17.6571C51.6903 16.6581 51.3548 16.1586 50.684 16.1586C50.4288 16.1586 50.2611 16.1878 50.1809 16.2461C50.0934 16.3118 50.0496 16.6691 50.0496 17.318V21.2336C50.0496 21.6055 50.0752 21.9045 50.1262 22.1305C50.1481 22.218 50.2684 22.2873 50.4871 22.3383C50.7059 22.3894 50.87 22.4149 50.9793 22.4149C51.0085 22.4149 51.0231 22.4842 51.0231 22.6227C51.0231 22.7102 51.0158 22.7758 51.0012 22.8196C50.1262 22.7758 49.5684 22.7539 49.3278 22.7539L47.7309 22.8196C47.7017 22.7904 47.6871 22.7284 47.6871 22.6336C47.6871 22.4878 47.7017 22.4149 47.7309 22.4149C47.8184 22.4149 47.9533 22.3894 48.1356 22.3383C48.3252 22.2873 48.4309 22.2326 48.4528 22.1743C48.4965 22.0066 48.5184 21.6857 48.5184 21.2118V17.0774C48.5184 16.6763 48.4965 16.392 48.4528 16.2243C48.4309 16.1659 48.3215 16.1003 48.1246 16.0274C47.9351 15.9545 47.8002 15.918 47.72 15.918C47.6908 15.918 47.6762 15.8524 47.6762 15.7211C47.6762 15.6045 47.6871 15.5352 47.709 15.5133C48.3653 15.5498 48.9012 15.568 49.3168 15.568Z" fill="#2A2727"/>
<path d="M56.2512 18.4883C55.9668 18.4883 55.759 18.6269 55.6278 18.9039C55.4965 19.1737 55.4309 19.4399 55.4309 19.7024C55.4309 19.7461 55.4564 19.768 55.5075 19.768H56.8965C56.9986 19.768 57.0496 19.6987 57.0496 19.5602C57.0496 19.2831 56.9731 19.0352 56.82 18.8164C56.6741 18.5977 56.4845 18.4883 56.2512 18.4883ZM56.3059 17.8868C56.9621 17.8868 57.4871 18.1164 57.8809 18.5758C58.2819 19.0279 58.4825 19.4909 58.4825 19.9649C58.4825 20.1326 58.446 20.242 58.3731 20.293C58.3075 20.3441 58.1726 20.3696 57.9684 20.3696H55.4965C55.4528 20.3696 55.4309 20.3951 55.4309 20.4461C55.4309 20.8399 55.5403 21.1935 55.759 21.5071C55.9851 21.8206 56.3059 21.9774 56.7215 21.9774C56.9621 21.9774 57.1918 21.9446 57.4106 21.8789C57.6293 21.806 57.7825 21.7441 57.87 21.693C57.9575 21.6347 58.0741 21.5508 58.22 21.4414C58.2856 21.4706 58.3184 21.5399 58.3184 21.6493C58.3184 21.7368 58.3038 21.8097 58.2746 21.868C58.2017 22.043 57.983 22.2508 57.6184 22.4914C57.2538 22.7321 56.8455 22.8524 56.3934 22.8524C55.7226 22.8524 55.1429 22.6081 54.6543 22.1196C54.1731 21.631 53.9325 21.0441 53.9325 20.3586C53.9325 19.6586 54.1512 19.0717 54.5887 18.5977C55.0262 18.1237 55.5986 17.8868 56.3059 17.8868Z" fill="#2A2727"/>
<path d="M62.5512 17.8868C62.872 17.8868 63.1856 18.0217 63.4918 18.2914C63.4918 18.6706 63.4444 18.9513 63.3496 19.1336C63.2621 19.3159 63.0981 19.4071 62.8575 19.4071C62.7116 19.4071 62.5439 19.3232 62.3543 19.1555C62.1647 18.9878 61.997 18.9039 61.8512 18.9039C61.6325 18.9039 61.4757 19.0279 61.3809 19.2758C61.2934 19.5164 61.2496 19.7753 61.2496 20.0524V21.1571C61.2496 21.6164 61.2752 21.9446 61.3262 22.1414C61.3408 22.1925 61.4356 22.2508 61.6106 22.3164C61.7929 22.3821 61.9132 22.4149 61.9715 22.4149C61.9934 22.4149 62.0043 22.4769 62.0043 22.6008C62.0116 22.7175 62.008 22.7904 61.9934 22.8196C61.9059 22.8123 61.6835 22.7977 61.3262 22.7758C60.9689 22.7467 60.7064 22.7321 60.5387 22.7321C60.3637 22.7321 60.0903 22.7467 59.7184 22.7758C59.3465 22.7977 59.1205 22.8123 59.0403 22.8196C59.0111 22.7904 58.9965 22.7175 58.9965 22.6008C58.9965 22.4769 59.0111 22.4149 59.0403 22.4149C59.1205 22.4149 59.2554 22.3821 59.445 22.3164C59.6345 22.2508 59.7366 22.1925 59.7512 22.1414C59.8022 21.9227 59.8278 21.6456 59.8278 21.3102V19.8118C59.8278 19.4034 59.7621 19.13 59.6309 18.9914C59.5798 18.9331 59.5033 18.8857 59.4012 18.8493C59.2991 18.8128 59.2116 18.7873 59.1387 18.7727C59.0658 18.7581 59.0293 18.7472 59.0293 18.7399C59.0293 18.4847 59.0476 18.3571 59.084 18.3571C59.1715 18.3571 59.3173 18.3388 59.5215 18.3024C59.7257 18.2586 59.9918 18.2003 60.32 18.1274C60.6481 18.0545 60.9033 17.9998 61.0856 17.9633C61.1585 17.9414 61.1986 17.9305 61.2059 17.9305C61.2423 17.9305 61.2788 17.956 61.3153 18.0071C61.3517 18.0508 61.37 18.0873 61.37 18.1164C61.3554 18.2039 61.3444 18.2987 61.3371 18.4008C61.3298 18.5029 61.3226 18.5685 61.3153 18.5977C61.6726 18.1237 62.0845 17.8868 62.5512 17.8868Z" fill="#2A2727"/>
<path d="M65.9746 17.8649C66.6163 17.8649 67.0903 17.9378 67.3965 18.0836C67.4694 18.4191 67.5059 18.8711 67.5059 19.4399C67.5059 19.5055 67.4585 19.5383 67.3637 19.5383C67.1377 19.5383 67.0173 19.5092 67.0028 19.4508C66.9371 19.1446 66.8241 18.9039 66.6637 18.7289C66.5106 18.5539 66.2627 18.4664 65.92 18.4664C65.7595 18.4664 65.6283 18.5066 65.5262 18.5868C65.4241 18.6597 65.3731 18.7691 65.3731 18.9149C65.3731 19.0826 65.446 19.2284 65.5918 19.3524C65.7377 19.4691 65.9528 19.5967 66.2371 19.7352C66.434 19.83 66.5871 19.9102 66.6965 19.9758C66.8132 20.0414 66.9627 20.1472 67.145 20.293C67.3345 20.4316 67.4731 20.5956 67.5606 20.7852C67.6554 20.9748 67.7028 21.1862 67.7028 21.4196C67.7028 21.9008 67.5168 22.2654 67.145 22.5133C66.7804 22.7612 66.3137 22.8852 65.745 22.8852C65.4897 22.8852 65.2054 22.8451 64.8918 22.7649C64.5783 22.6847 64.3522 22.5862 64.2137 22.4696C64.1262 21.9664 64.0825 21.5217 64.0825 21.1352C64.1116 21.1133 64.1663 21.1024 64.2465 21.1024C64.4798 21.1024 64.6002 21.1352 64.6075 21.2008C64.7314 21.9227 65.1252 22.2836 65.7887 22.2836C65.9637 22.2836 66.1095 22.2435 66.2262 22.1633C66.3429 22.0831 66.4012 21.9701 66.4012 21.8243C66.4012 21.642 66.321 21.4888 66.1606 21.3649C66.0075 21.2409 65.7267 21.0769 65.3184 20.8727C64.8955 20.6685 64.5819 20.4461 64.3778 20.2055C64.1736 19.9576 64.0715 19.655 64.0715 19.2977C64.0715 18.8019 64.2611 18.4409 64.6403 18.2149C65.0194 17.9816 65.4642 17.8649 65.9746 17.8649Z" fill="#2A2727"/>
<path d="M71.509 17.8977C72.2017 17.8977 72.7741 18.1383 73.2262 18.6196C73.6856 19.1008 73.9153 19.6586 73.9153 20.293C73.9153 21.1024 73.6564 21.7331 73.1387 22.1852C72.621 22.6373 71.9684 22.8633 71.1809 22.8633C71.0934 22.8633 70.9986 22.856 70.8965 22.8414C70.8017 22.8269 70.7215 22.8086 70.6559 22.7868C70.5903 22.7722 70.5538 22.7649 70.5465 22.7649C70.5173 22.7649 70.5028 22.8232 70.5028 22.9399V23.4868C70.5028 23.9534 70.5283 24.2852 70.5793 24.4821C70.5939 24.5331 70.696 24.5914 70.8856 24.6571C71.0752 24.7227 71.2028 24.7555 71.2684 24.7555C71.2903 24.7555 71.3012 24.8138 71.3012 24.9305C71.3085 25.0545 71.3048 25.131 71.2903 25.1602C71.2101 25.1529 70.9804 25.1347 70.6012 25.1055C70.2293 25.0836 69.9595 25.0727 69.7918 25.0727C69.6168 25.0727 69.3434 25.0836 68.9715 25.1055C68.5996 25.1347 68.3736 25.1529 68.2934 25.1602C68.2642 25.131 68.2496 25.0545 68.2496 24.9305C68.2496 24.8138 68.2642 24.7555 68.2934 24.7555C68.3736 24.7555 68.5085 24.7227 68.6981 24.6571C68.8877 24.5914 68.9897 24.5331 69.0043 24.4821C69.0554 24.2633 69.0809 23.9862 69.0809 23.6508V19.8118C69.0809 19.4034 69.0153 19.13 68.884 18.9914C68.833 18.9331 68.7564 18.8857 68.6543 18.8493C68.5522 18.8128 68.4647 18.7873 68.3918 18.7727C68.3189 18.7581 68.2825 18.7472 68.2825 18.7399C68.2825 18.4847 68.3007 18.3571 68.3371 18.3571C68.7819 18.3571 69.3689 18.2513 70.0981 18.0399C70.3241 17.967 70.4444 17.9305 70.459 17.9305C70.5028 17.9305 70.5246 17.9779 70.5246 18.0727C70.5246 18.1164 70.5173 18.1821 70.5028 18.2696C70.8236 18.0217 71.159 17.8977 71.509 17.8977ZM71.345 18.5321C71.0897 18.5321 70.8856 18.6086 70.7325 18.7618C70.5793 18.9149 70.5028 19.1081 70.5028 19.3414V21.4086C70.5028 21.6857 70.5939 21.9008 70.7762 22.0539C70.9585 22.1998 71.1517 22.2727 71.3559 22.2727C72.0121 22.2727 72.3403 21.7331 72.3403 20.6539C72.3403 19.2394 72.0085 18.5321 71.345 18.5321Z" fill="#2A2727"/>
<path d="M76.7918 18.4883C76.5075 18.4883 76.2996 18.6269 76.1684 18.9039C76.0371 19.1737 75.9715 19.4399 75.9715 19.7024C75.9715 19.7461 75.997 19.768 76.0481 19.768H77.4371C77.5392 19.768 77.5903 19.6987 77.5903 19.5602C77.5903 19.2831 77.5137 19.0352 77.3606 18.8164C77.2147 18.5977 77.0252 18.4883 76.7918 18.4883ZM76.8465 17.8868C77.5028 17.8868 78.0278 18.1164 78.4215 18.5758C78.8226 19.0279 79.0231 19.4909 79.0231 19.9649C79.0231 20.1326 78.9866 20.242 78.9137 20.293C78.8481 20.3441 78.7132 20.3696 78.509 20.3696H76.0371C75.9934 20.3696 75.9715 20.3951 75.9715 20.4461C75.9715 20.8399 76.0809 21.1935 76.2996 21.5071C76.5257 21.8206 76.8465 21.9774 77.2621 21.9774C77.5028 21.9774 77.7325 21.9446 77.9512 21.8789C78.17 21.806 78.3231 21.7441 78.4106 21.693C78.4981 21.6347 78.6147 21.5508 78.7606 21.4414C78.8262 21.4706 78.859 21.5399 78.859 21.6493C78.859 21.7368 78.8444 21.8097 78.8153 21.868C78.7423 22.043 78.5236 22.2508 78.159 22.4914C77.7944 22.7321 77.3861 22.8524 76.934 22.8524C76.2632 22.8524 75.6835 22.6081 75.195 22.1196C74.7137 21.631 74.4731 21.0441 74.4731 20.3586C74.4731 19.6586 74.6918 19.0717 75.1293 18.5977C75.5668 18.1237 76.1392 17.8868 76.8465 17.8868Z" fill="#2A2727"/>
<path d="M82.1403 17.8868C82.4538 17.8868 82.7455 17.9342 83.0153 18.0289C83.2923 18.1237 83.4856 18.2149 83.595 18.3024C83.7043 18.3826 83.7882 18.4592 83.8465 18.5321C83.8465 19.2029 83.6496 19.5383 83.2559 19.5383C82.9715 19.5383 82.7564 19.356 82.6106 18.9914C82.545 18.8237 82.4611 18.6998 82.359 18.6196C82.2642 18.5321 82.1293 18.4883 81.9543 18.4883C81.371 18.4883 81.0793 19.0352 81.0793 20.1289C81.0793 21.3612 81.4913 21.9774 82.3153 21.9774C82.5559 21.9774 82.7856 21.9446 83.0043 21.8789C83.2231 21.806 83.3762 21.7441 83.4637 21.693C83.5512 21.6347 83.6679 21.5508 83.8137 21.4414C83.8793 21.4706 83.9121 21.5399 83.9121 21.6493C83.9121 21.7368 83.8976 21.8097 83.8684 21.868C83.7955 22.0503 83.5767 22.2618 83.2121 22.5024C82.8549 22.7357 82.4502 22.8524 81.9981 22.8524C81.2981 22.8524 80.7111 22.6081 80.2371 22.1196C79.7632 21.6237 79.5262 21.0185 79.5262 20.3039C79.5262 19.6331 79.7778 19.0644 80.2809 18.5977C80.7913 18.1237 81.4111 17.8868 82.1403 17.8868Z" fill="#2A2727"/>
<path d="M85.3559 18.7289H84.645C84.5866 18.7289 84.5575 18.6159 84.5575 18.3899C84.5575 18.3316 84.5647 18.2914 84.5793 18.2696C84.9877 18.0654 85.3158 17.8685 85.5637 17.6789C85.6731 17.5987 85.8007 17.4967 85.9465 17.3727C86.0923 17.2414 86.2163 17.1321 86.3184 17.0446C86.4278 16.9498 86.4861 16.8987 86.4934 16.8914C86.5517 16.8914 86.6137 16.906 86.6793 16.9352C86.745 16.9571 86.7778 16.9826 86.7778 17.0118V18.0836H87.959C88.0173 18.0836 88.0465 18.1201 88.0465 18.193C88.0465 18.4045 88.0101 18.5831 87.9371 18.7289H86.7778V21.3211C86.7778 21.8753 86.9746 22.1524 87.3684 22.1524C87.4778 22.1524 87.5762 22.1414 87.6637 22.1196C87.7585 22.0904 87.8314 22.0612 87.8825 22.0321C87.9335 22.0029 87.9627 21.9883 87.97 21.9883C87.9991 21.9883 88.0283 22.0248 88.0575 22.0977C88.0939 22.1706 88.1121 22.2253 88.1121 22.2618C88.1121 22.3493 87.9627 22.4696 87.6637 22.6227C87.3647 22.7758 87.084 22.8524 86.8215 22.8524C86.4205 22.8524 86.0741 22.7284 85.7825 22.4805C85.4981 22.2253 85.3559 21.817 85.3559 21.2555V18.7289Z" fill="#2A2727"/>
<path d="M89.545 16.618C89.3845 16.4576 89.3043 16.2644 89.3043 16.0383C89.3043 15.8123 89.3845 15.6227 89.545 15.4696C89.7054 15.3092 89.895 15.2289 90.1137 15.2289C90.3397 15.2289 90.5293 15.3092 90.6825 15.4696C90.8429 15.6227 90.9231 15.8123 90.9231 16.0383C90.9231 16.2644 90.8429 16.4576 90.6825 16.618C90.5293 16.7711 90.3397 16.8477 90.1137 16.8477C89.895 16.8477 89.7054 16.7711 89.545 16.618ZM90.9231 21.1461C90.9231 21.6128 90.9486 21.9446 90.9996 22.1414C91.0142 22.1925 91.1163 22.2508 91.3059 22.3164C91.5028 22.3821 91.6304 22.4149 91.6887 22.4149C91.7179 22.4149 91.7325 22.4769 91.7325 22.6008C91.7325 22.7175 91.7252 22.7904 91.7106 22.8196C91.6377 22.8123 91.4116 22.7977 91.0325 22.7758C90.6533 22.7467 90.3798 22.7321 90.2121 22.7321C90.0371 22.7321 89.7637 22.7467 89.3918 22.7758C89.0272 22.7977 88.8012 22.8123 88.7137 22.8196C88.6918 22.7904 88.6809 22.7175 88.6809 22.6008C88.6809 22.4769 88.6918 22.4149 88.7137 22.4149C88.8012 22.4149 88.9361 22.3821 89.1184 22.3164C89.308 22.2508 89.4101 22.1925 89.4246 22.1414C89.4757 21.9227 89.5012 21.6456 89.5012 21.3102V19.8118C89.5012 19.4034 89.4356 19.13 89.3043 18.9914C89.2533 18.9331 89.1767 18.8857 89.0746 18.8493C88.9799 18.8128 88.8923 18.7873 88.8121 18.7727C88.7392 18.7581 88.7028 18.7472 88.7028 18.7399C88.7028 18.4847 88.721 18.3571 88.7575 18.3571C88.9033 18.3571 89.2205 18.3097 89.709 18.2149C90.2048 18.1128 90.5548 18.0289 90.759 17.9633C90.7663 17.9633 90.7882 17.9597 90.8246 17.9524C90.8611 17.9378 90.8793 17.9305 90.8793 17.9305C90.9231 17.9305 90.9595 17.956 90.9887 18.0071C91.0252 18.0508 91.0434 18.0873 91.0434 18.1164C91.0361 18.1748 91.0215 18.2842 90.9996 18.4446C90.9778 18.605 90.9595 18.7472 90.945 18.8711C90.9304 18.9878 90.9231 19.1008 90.9231 19.2102V21.1461Z" fill="#2A2727"/>
<path d="M96.3481 18.5649C96.195 18.4118 95.9543 18.3352 95.6262 18.3352C95.6043 18.3279 95.5934 18.2696 95.5934 18.1602C95.5934 18.0508 95.6007 17.9743 95.6153 17.9305C95.7246 17.9378 95.9215 17.956 96.2059 17.9852C96.4976 18.0071 96.7236 18.018 96.884 18.018C97.059 18.018 97.2814 18.0071 97.5512 17.9852C97.8283 17.956 98.0252 17.9378 98.1418 17.9305C98.171 17.9597 98.1856 18.0217 98.1856 18.1164C98.1856 18.2623 98.171 18.3352 98.1418 18.3352C98.0325 18.3352 97.8793 18.3753 97.6825 18.4555C97.4856 18.5284 97.3507 18.6342 97.2778 18.7727L95.3528 22.5789C95.2434 22.7904 95.134 22.8961 95.0246 22.8961C94.9371 22.8961 94.8788 22.867 94.8496 22.8086L93.034 18.718C92.9757 18.5795 92.859 18.481 92.684 18.4227C92.5163 18.3644 92.3778 18.3352 92.2684 18.3352C92.2392 18.3352 92.2246 18.2623 92.2246 18.1164C92.2246 18.0289 92.2392 17.967 92.2684 17.9305C92.3486 17.9378 92.5746 17.956 92.9465 17.9852C93.3257 18.0071 93.5991 18.018 93.7668 18.018C93.9491 18.018 94.2371 18.0034 94.6309 17.9743C95.0319 17.9451 95.2653 17.9305 95.3309 17.9305C95.3601 17.9597 95.3746 18.0362 95.3746 18.1602C95.3746 18.2769 95.3601 18.3352 95.3309 18.3352C95.2215 18.3352 95.0684 18.3644 94.8715 18.4227C94.6819 18.481 94.5871 18.5503 94.5871 18.6305L94.609 18.7946L95.4731 20.8508L96.3371 19.0352C96.4465 18.8237 96.4502 18.667 96.3481 18.5649Z" fill="#2A2727"/>
<path d="M101.084 18.4883C100.8 18.4883 100.592 18.6269 100.461 18.9039C100.329 19.1737 100.264 19.4399 100.264 19.7024C100.264 19.7461 100.289 19.768 100.34 19.768H101.729C101.831 19.768 101.882 19.6987 101.882 19.5602C101.882 19.2831 101.806 19.0352 101.653 18.8164C101.507 18.5977 101.317 18.4883 101.084 18.4883ZM101.139 17.8868C101.795 17.8868 102.32 18.1164 102.714 18.5758C103.115 19.0279 103.315 19.4909 103.315 19.9649C103.315 20.1326 103.279 20.242 103.206 20.293C103.14 20.3441 103.005 20.3696 102.801 20.3696H100.329C100.286 20.3696 100.264 20.3951 100.264 20.4461C100.264 20.8399 100.373 21.1935 100.592 21.5071C100.818 21.8206 101.139 21.9774 101.554 21.9774C101.795 21.9774 102.025 21.9446 102.243 21.8789C102.462 21.806 102.615 21.7441 102.703 21.693C102.79 21.6347 102.907 21.5508 103.053 21.4414C103.118 21.4706 103.151 21.5399 103.151 21.6493C103.151 21.7368 103.137 21.8097 103.107 21.868C103.035 22.043 102.816 22.2508 102.451 22.4914C102.087 22.7321 101.678 22.8524 101.226 22.8524C100.555 22.8524 99.9757 22.6081 99.4871 22.1196C99.0059 21.631 98.7653 21.0441 98.7653 20.3586C98.7653 19.6586 98.984 19.0717 99.4215 18.5977C99.859 18.1237 100.431 17.8868 101.139 17.8868Z" fill="#2A2727"/>
<path d="M15.6025 13.3993C14.7235 13.3993 14.7235 14.7804 15.6025 14.7804C16.4814 14.7804 17.3603 15.4082 17.1092 16.2872C16.8581 18.1706 13.7191 18.1706 12.3379 16.7894C10.8312 15.2827 11.459 12.897 12.9657 11.6415C15.1002 9.75805 18.6159 10.1347 20.4993 12.0181C23.0105 14.5293 22.0061 18.2961 19.4948 20.3051C16.4814 22.9419 11.459 22.8163 8.57111 19.9284C5.18097 16.5383 6.56214 11.3903 9.95227 8.62801C13.9702 5.11231 20.4993 5.11231 24.2661 8.87913C28.5352 13.2737 26.9029 19.8029 22.6339 23.4441C17.6114 27.5876 9.57559 27.8387 4.80429 23.0674C-0.343696 17.7939 1.66528 10.0092 6.81326 5.48899C9.57559 3.2289 13.2168 1.72218 17.1092 1.59662C17.9881 1.59662 17.9881 0.215454 16.9836 0.215454C12.8402 0.341014 8.94779 1.9733 5.93434 4.48451C0.158546 9.38137 -1.97598 18.1706 3.79981 24.0719C9.07335 29.3455 17.9881 29.2199 23.5128 24.4486C28.4096 20.3051 30.1675 12.897 25.2706 8.0002C21.0016 3.60558 13.5935 3.60558 9.07335 7.49796C5.05541 10.8881 3.67424 16.915 7.56662 20.9329C10.9568 24.323 16.7325 24.5742 20.4993 21.4351C23.5128 18.7984 24.5173 14.1526 21.5038 11.1392C19.1182 8.62801 14.8491 8.25132 12.0868 10.5114C9.95227 12.3948 9.19891 15.6594 11.3334 17.7939C13.4679 19.9284 17.8626 19.6773 18.4904 16.5383C18.867 14.7804 17.2347 13.3993 15.6025 13.3993Z" fill="#2A2727"/>
</svg>
