<svg width="451" height="121" viewBox="0 0 451 121" fill="none" xmlns="http://www.w3.org/2000/svg">
<path d="M173.964 47.5831C174.663 47.5831 175.378 47.4401 176.109 47.1542C176.839 46.8365 177.205 46.4236 177.205 45.9153C177.205 45.8517 176.807 44.7875 176.013 42.7225L174.584 39.2439C174.457 39.1168 174.345 39.0533 174.25 39.0533C173.647 39.0215 172.122 39.0056 169.675 39.0056C167.579 39.0056 165.974 39.0215 164.863 39.0533C164.735 39.0533 164.624 39.1327 164.529 39.2915C164.529 39.2915 164.005 40.4987 162.956 42.9131C162.321 44.3427 162.003 45.3117 162.003 45.82C162.003 46.3282 162.289 46.7254 162.861 47.0113C163.433 47.2972 163.925 47.4719 164.338 47.5355C164.783 47.5672 165.164 47.5831 165.482 47.5831C165.577 47.6149 165.625 47.869 165.625 48.3456C165.625 48.8221 165.593 49.1556 165.53 49.3463C165.117 49.3145 164.275 49.251 163.004 49.1556C161.765 49.0286 160.749 48.965 159.954 48.965C159.16 48.965 158.207 49.0286 157.095 49.1556C155.983 49.251 155.125 49.3145 154.522 49.3463C154.395 49.2192 154.331 48.9809 154.331 48.6315C154.331 47.9643 154.363 47.6308 154.427 47.6308C154.808 47.6308 155.443 47.4719 156.333 47.1542C157.222 46.8048 157.778 46.4553 158.001 46.1059C158.255 45.7246 158.509 45.264 158.763 44.7239C159.049 44.1521 159.271 43.6915 159.43 43.342L159.668 42.7702L170.2 18.5626C170.549 17.7366 171.137 17.3236 171.963 17.3236C172.439 17.3236 172.821 17.5301 173.106 17.9431L182.875 42.103C183.479 43.5644 184.003 44.8669 184.448 46.0106C184.638 46.5189 185.163 46.916 186.02 47.2019C186.878 47.456 187.529 47.5831 187.974 47.5831C188.101 47.5831 188.165 47.8531 188.165 48.3932C188.165 48.9333 188.133 49.2509 188.069 49.3463C187.942 49.3463 186.958 49.2827 185.115 49.1556C183.304 49.0286 181.986 48.965 181.16 48.965C180.937 48.965 178.539 49.0921 173.964 49.3463C173.837 49.2192 173.774 48.9015 173.774 48.3932C173.774 47.8531 173.837 47.5831 173.964 47.5831ZM166.149 36.0035C167.102 36.0988 168.278 36.1464 169.675 36.1464C170.946 36.1464 172.074 36.1147 173.059 36.0511L173.202 35.8129L169.771 27.283L166.054 35.8129C166.054 35.9399 166.086 36.0035 166.149 36.0035Z" fill="#2A2727"/>
<path d="M207.131 17.8954C207.766 17.8954 208.655 17.8637 209.799 17.8001C210.975 17.7048 211.753 17.6413 212.134 17.6095C212.452 18.6261 213.754 21.6282 216.042 26.6159C218.329 31.5718 220.029 35.4317 221.14 38.1955H221.236C221.299 38.1955 221.331 38.1796 221.331 38.1479C223.777 32.0801 225.715 27.0765 227.145 23.1372L228.717 17.8001C229.289 17.8637 230.576 17.8954 232.577 17.8954C232.768 17.8954 234.769 17.8001 238.581 17.6095C238.708 17.8001 238.772 18.0543 238.772 18.372C238.772 19.0391 238.693 19.3727 238.534 19.3727H238.486C237.692 19.3727 237.025 19.5633 236.485 19.9445C236.008 20.294 235.786 20.9452 235.817 21.8983C235.881 23.169 236.04 26.4571 236.294 31.7624C236.548 37.0677 236.707 40.4511 236.771 41.9124C236.866 43.8503 237.104 45.3117 237.485 46.2965C237.612 46.5824 238.025 46.8683 238.724 47.1542C239.455 47.4401 239.963 47.5831 240.249 47.5831C240.376 47.5831 240.44 47.9008 240.44 48.5362C240.44 48.8856 240.408 49.1556 240.344 49.3463C239.995 49.3145 239.106 49.251 237.676 49.1556C236.246 49.0286 235.119 48.965 234.293 48.965C233.435 48.965 232.18 49.0286 230.528 49.1556C228.876 49.251 227.828 49.3145 227.383 49.3463C227.224 49.1874 227.145 48.9333 227.145 48.5838C227.145 47.9167 227.192 47.5831 227.288 47.5831C227.637 47.5831 228.177 47.4401 228.908 47.1542C229.638 46.8683 230.083 46.5665 230.242 46.2488C230.496 45.7723 230.623 45.3275 230.623 44.9146C230.623 44.1839 230.592 43.2467 230.528 42.103L230.147 29.9992C230.02 27.8708 229.893 26.8065 229.766 26.8065C229.702 26.8065 229.623 26.9177 229.527 27.1401L221.283 47.6784C221.156 47.9961 220.902 48.3455 220.521 48.7268C220.14 49.0762 219.758 49.251 219.377 49.251C219.282 49.251 219.139 49.2192 218.948 49.1556L208.465 25.6152L207.655 43.9615C207.655 44.8828 207.671 45.4546 207.702 45.677C207.798 46.09 208.497 46.5189 209.799 46.9636C211.102 47.3766 211.959 47.5831 212.372 47.5831C212.499 47.5831 212.563 47.9008 212.563 48.5362C212.563 48.8856 212.531 49.1556 212.468 49.3463C212.213 49.3463 211.26 49.2827 209.608 49.1556C207.956 49.0286 206.718 48.965 205.892 48.965C205.066 48.965 203.922 49.0286 202.461 49.1556C200.999 49.251 200.014 49.3145 199.506 49.3463C199.379 49.2192 199.315 48.9492 199.315 48.5362C199.315 47.9326 199.363 47.6308 199.458 47.6308C200.03 47.6308 200.952 47.3925 202.222 46.916C203.525 46.4394 204.208 45.8676 204.271 45.2005C204.335 44.4698 204.398 43.7073 204.462 42.9131C204.557 41.2612 204.668 38.8309 204.796 35.6223C204.923 32.3819 205.034 29.2686 205.129 26.2823C205.224 23.2961 205.288 21.5965 205.32 21.1835C205.32 20.834 205.272 20.5481 205.177 20.3257C205.081 20.0716 204.573 19.8492 203.652 19.6586C202.731 19.4362 202.063 19.325 201.65 19.325C201.523 19.325 201.46 18.9915 201.46 18.3243C201.46 17.9749 201.523 17.7366 201.65 17.6095C202.095 17.6413 202.905 17.7048 204.081 17.8001C205.288 17.8637 206.305 17.8954 207.131 17.8954Z" fill="#2A2727"/>
<path d="M251.876 46.0582C252.702 46.0582 253.338 45.8676 253.783 45.4864C254.259 45.0734 254.497 44.581 254.497 44.0091V39.1962C254.434 39.228 254.116 39.3392 253.544 39.5298C253.004 39.6886 252.655 39.7998 252.496 39.8634C252.337 39.9269 252.035 40.054 251.591 40.2446C251.146 40.4034 250.828 40.5623 250.637 40.7211C250.479 40.8482 250.272 41.0229 250.018 41.2453C249.764 41.4677 249.589 41.7059 249.494 41.9601C249.399 42.2142 249.351 42.5001 249.351 42.8178C249.351 43.9615 249.589 44.7875 250.066 45.2958C250.574 45.8041 251.178 46.0582 251.876 46.0582ZM253.783 27.7596C256.006 27.7596 257.706 28.379 258.881 29.618C260.089 30.8252 260.692 33.0331 260.692 36.2418V43.9615C260.692 45.0416 261.073 45.5817 261.836 45.5817C262.376 45.5817 262.916 45.3752 263.456 44.9622C263.678 45.0893 263.79 45.3275 263.79 45.677C263.79 46.4712 263.678 47.0589 263.456 47.4401C263.011 47.8531 262.281 48.2979 261.264 48.7744C260.279 49.2192 259.342 49.4416 258.453 49.4416C257.69 49.4416 256.959 49.2192 256.261 48.7744C255.562 48.2979 255.101 47.7578 254.879 47.1542C254.847 47.1542 254.72 47.2495 254.497 47.4401C254.275 47.599 253.989 47.7896 253.64 48.012C253.29 48.2344 252.877 48.4567 252.401 48.6791C251.956 48.9015 251.416 49.0921 250.78 49.251C250.145 49.4098 249.51 49.4892 248.874 49.4892C247.127 49.4892 245.729 49.0127 244.681 48.0596C243.664 47.0748 243.156 45.8517 243.156 44.3904C243.156 43.5326 243.347 42.7543 243.728 42.0554C244.141 41.3247 244.601 40.737 245.11 40.2922C245.65 39.8157 246.365 39.3868 247.254 39.0056C248.144 38.5926 248.906 38.2908 249.541 38.1002C250.177 37.8778 250.987 37.6396 251.972 37.3854C252.988 37.0995 253.687 36.893 254.068 36.7659C254.354 36.6706 254.497 36.4324 254.497 36.0511V34.3356C254.497 31.7306 253.703 30.4281 252.115 30.4281C250.272 30.4281 249.351 31.4924 249.351 33.6208C249.351 34.3198 249.065 34.8439 248.493 35.1934C247.921 35.5111 247.286 35.6699 246.587 35.6699C245.126 35.6699 244.125 35.1934 243.585 34.2403C243.585 32.6201 244.649 31.1429 246.778 29.8086C248.938 28.4426 251.273 27.7596 253.783 27.7596Z" fill="#2A2727"/>
<path d="M269.603 31.5241H266.506C266.252 31.5241 266.125 31.0317 266.125 30.0469C266.125 29.7927 266.156 29.618 266.22 29.5227C267.999 28.6332 269.429 27.7754 270.509 26.9495C270.985 26.6 271.541 26.1553 272.177 25.6152C272.812 25.0434 273.352 24.5668 273.797 24.1856C274.273 23.7726 274.527 23.5502 274.559 23.5185C274.813 23.5185 275.083 23.582 275.369 23.7091C275.655 23.8044 275.798 23.9156 275.798 24.0426V28.7126H280.945C281.199 28.7126 281.326 28.8715 281.326 29.1891C281.326 30.1104 281.167 30.8888 280.849 31.5241H275.798V42.8178C275.798 45.2322 276.656 46.4394 278.371 46.4394C278.848 46.4394 279.277 46.3918 279.658 46.2965C280.071 46.1694 280.389 46.0423 280.611 45.9153C280.833 45.7882 280.961 45.7246 280.992 45.7246C281.119 45.7246 281.246 45.8835 281.374 46.2012C281.532 46.5189 281.612 46.7571 281.612 46.916C281.612 47.2972 280.961 47.8214 279.658 48.4885C278.355 49.1556 277.132 49.4892 275.989 49.4892C274.241 49.4892 272.732 48.9492 271.462 47.869C270.223 46.7571 269.603 44.9781 269.603 42.5319V31.5241Z" fill="#2A2727"/>
<path d="M287.425 31.5241H284.328C284.074 31.5241 283.947 31.0317 283.947 30.0469C283.947 29.7927 283.979 29.618 284.042 29.5227C285.821 28.6332 287.251 27.7754 288.331 26.9495C288.807 26.6 289.363 26.1553 289.999 25.6152C290.634 25.0434 291.174 24.5668 291.619 24.1856C292.095 23.7726 292.35 23.5502 292.381 23.5185C292.635 23.5185 292.905 23.582 293.191 23.7091C293.477 23.8044 293.62 23.9156 293.62 24.0426V28.7126H298.767C299.021 28.7126 299.148 28.8715 299.148 29.1891C299.148 30.1104 298.989 30.8888 298.671 31.5241H293.62V42.8178C293.62 45.2322 294.478 46.4394 296.194 46.4394C296.67 46.4394 297.099 46.3918 297.48 46.2965C297.893 46.1694 298.211 46.0423 298.433 45.9153C298.656 45.7882 298.783 45.7246 298.814 45.7246C298.941 45.7246 299.069 45.8835 299.196 46.2012C299.354 46.5189 299.434 46.7571 299.434 46.916C299.434 47.2972 298.783 47.8214 297.48 48.4885C296.178 49.1556 294.955 49.4892 293.811 49.4892C292.064 49.4892 290.555 48.9492 289.284 47.869C288.045 46.7571 287.425 44.9781 287.425 42.5319V31.5241Z" fill="#2A2727"/>
<path d="M311.967 30.4758C310.728 30.4758 309.822 31.0794 309.25 32.2866C308.679 33.462 308.393 34.6216 308.393 35.7652C308.393 35.9558 308.504 36.0511 308.726 36.0511H314.778C315.223 36.0511 315.445 35.7493 315.445 35.1457C315.445 33.9385 315.112 32.8584 314.445 31.9054C313.809 30.9523 312.983 30.4758 311.967 30.4758ZM312.205 27.8549C315.064 27.8549 317.351 28.8556 319.067 30.857C320.814 32.8266 321.688 34.8439 321.688 36.9089C321.688 37.6396 321.529 38.1161 321.211 38.3385C320.925 38.5609 320.338 38.672 319.448 38.672H308.679C308.488 38.672 308.393 38.7832 308.393 39.0056C308.393 40.7211 308.869 42.2619 309.822 43.6279C310.807 44.994 312.205 45.677 314.016 45.677C315.064 45.677 316.065 45.534 317.018 45.2481C317.971 44.9304 318.638 44.6604 319.019 44.438C319.4 44.1839 319.909 43.8185 320.544 43.342C320.83 43.4691 320.973 43.7709 320.973 44.2474C320.973 44.6286 320.909 44.9463 320.782 45.2005C320.465 45.9629 319.512 46.8683 317.923 47.9167C316.335 48.965 314.556 49.4892 312.586 49.4892C309.663 49.4892 307.138 48.425 305.009 46.2965C302.913 44.168 301.864 41.6106 301.864 38.6244C301.864 35.5746 302.817 33.0172 304.723 30.9523C306.629 28.8873 309.123 27.8549 312.205 27.8549Z" fill="#2A2727"/>
<path d="M339.415 27.8549C340.812 27.8549 342.178 28.4426 343.513 29.618C343.513 31.27 343.306 32.4931 342.893 33.2873C342.512 34.0815 341.797 34.4786 340.749 34.4786C340.113 34.4786 339.383 34.1133 338.557 33.3826C337.731 32.6519 337 32.2866 336.365 32.2866C335.412 32.2866 334.729 32.8266 334.316 33.9068C333.934 34.9551 333.744 36.0829 333.744 37.2901V42.103C333.744 44.1045 333.855 45.534 334.077 46.3918C334.141 46.6142 334.554 46.8683 335.316 47.1542C336.111 47.4401 336.635 47.5831 336.889 47.5831C336.984 47.5831 337.032 47.8531 337.032 48.3932C337.064 48.9015 337.048 49.2192 336.984 49.3463C336.603 49.3145 335.634 49.251 334.077 49.1556C332.521 49.0286 331.377 48.965 330.646 48.965C329.884 48.965 328.693 49.0286 327.072 49.1556C325.452 49.251 324.467 49.3145 324.118 49.3463C323.991 49.2192 323.927 48.9015 323.927 48.3932C323.927 47.8531 323.991 47.5831 324.118 47.5831C324.467 47.5831 325.055 47.4401 325.881 47.1542C326.707 46.8683 327.152 46.6142 327.215 46.3918C327.438 45.4387 327.549 44.2315 327.549 42.7702V36.2418C327.549 34.4627 327.263 33.2714 326.691 32.6678C326.469 32.4136 326.135 32.2072 325.691 32.0483C325.246 31.8895 324.865 31.7783 324.547 31.7147C324.229 31.6512 324.07 31.6035 324.07 31.5718C324.07 30.4599 324.15 29.9039 324.309 29.9039C324.69 29.9039 325.325 29.8245 326.215 29.6657C327.104 29.4751 328.264 29.2209 329.693 28.9032C331.123 28.5855 332.235 28.3473 333.029 28.1884C333.347 28.0931 333.521 28.0455 333.553 28.0455C333.712 28.0455 333.871 28.1567 334.03 28.379C334.189 28.5697 334.268 28.7285 334.268 28.8556C334.205 29.2368 334.157 29.6498 334.125 30.0945C334.093 30.5393 334.062 30.8252 334.03 30.9523C335.586 28.8873 337.381 27.8549 339.415 27.8549Z" fill="#2A2727"/>
<path d="M165.577 78.4008C164.656 78.4008 163.894 78.7662 163.29 79.4968C162.686 80.2275 162.289 81.0694 162.099 82.0224C161.908 82.9437 161.813 83.9762 161.813 85.1199C161.813 91.5689 163.449 94.7934 166.721 94.7934C168.055 94.7934 169.024 94.1421 169.628 92.8396C170.263 91.5371 170.581 90.0122 170.581 88.2649C170.581 81.6889 168.913 78.4008 165.577 78.4008ZM158.286 78.925C160.478 76.8283 163.131 75.7799 166.244 75.7799C169.358 75.7799 171.995 76.8283 174.155 78.925C176.347 81.0217 177.443 83.5791 177.443 86.5971C177.443 89.6151 176.363 92.1725 174.202 94.2692C172.042 96.3659 169.39 97.4143 166.244 97.4143C163.131 97.4143 160.478 96.3659 158.286 94.2692C156.126 92.1725 155.046 89.6151 155.046 86.5971C155.046 83.5791 156.126 81.0217 158.286 78.925Z" fill="#2A2727"/>
<path d="M194.741 63.9144C196.139 63.9144 197.346 64.0732 198.362 64.3909C199.411 64.7086 200.062 65.0898 200.316 65.5346C200.411 66.1382 200.459 66.7894 200.459 67.4883C200.459 68.1555 200.253 68.775 199.84 69.3468C199.427 69.8869 198.839 70.1569 198.076 70.1569C197.409 70.1569 196.822 69.8869 196.313 69.3468C195.837 68.775 195.36 68.219 194.884 67.679C194.439 67.1389 193.915 66.8689 193.311 66.8689C192.295 66.8689 191.548 67.5995 191.072 69.0609C190.595 70.5222 190.357 72.3172 190.357 74.4456V76.3994C190.357 76.5582 190.436 76.6377 190.595 76.6377H195.884C196.043 76.6377 196.123 76.7489 196.123 76.9712C196.123 77.8608 195.932 78.6867 195.551 79.4492H190.643C190.452 79.4492 190.357 79.5445 190.357 79.7351V89.9804C190.357 92.0136 190.468 93.4591 190.69 94.3168C190.754 94.5392 191.199 94.7934 192.025 95.0793C192.851 95.3652 193.407 95.5082 193.692 95.5082C193.788 95.5082 193.835 95.7782 193.835 96.3183C193.867 96.8266 193.851 97.1442 193.788 97.2713C193.438 97.2395 192.438 97.176 190.786 97.0807C189.165 96.9536 187.99 96.8901 187.259 96.8901C186.497 96.8901 185.306 96.9536 183.685 97.0807C182.065 97.176 181.08 97.2395 180.731 97.2713C180.604 97.1442 180.54 96.8266 180.54 96.3183C180.54 95.7782 180.604 95.5082 180.731 95.5082C181.08 95.5082 181.668 95.3652 182.494 95.0793C183.32 94.7934 183.765 94.5392 183.828 94.3168C184.051 93.3638 184.162 92.1566 184.162 90.6952V79.7828C184.162 79.5604 184.082 79.4492 183.924 79.4492H180.731C180.636 79.4492 180.588 79.3539 180.588 79.1633C180.588 78.7503 180.779 78.2261 181.16 77.5907C181.573 76.9236 182.049 76.59 182.589 76.59H183.924C184.082 76.59 184.162 76.4947 184.162 76.3041V75.9705C184.162 72.6666 185.163 69.8392 187.164 67.4883C189.197 65.1375 191.723 63.9462 194.741 63.9144Z" fill="#2A2727"/>
<path d="M215.184 65.6775C216.105 65.6775 217.106 65.6616 218.186 65.6299C219.298 65.5663 220.33 65.5346 221.283 65.5346C223.158 65.5346 224.921 65.7887 226.573 66.297C228.225 66.8053 229.67 67.7584 230.909 69.1562C232.148 70.5222 232.768 72.2218 232.768 74.255C232.768 76.8283 231.767 79.0521 229.766 80.9264C227.796 82.8008 225.397 83.7379 222.57 83.7379C222.062 83.7379 221.553 83.6585 221.045 83.4997C220.537 83.3408 220.156 83.1979 219.901 83.0708C219.647 82.9119 219.488 82.7849 219.425 82.6896C219.298 82.499 219.218 82.1495 219.187 81.6412C219.155 81.1329 219.218 80.8788 219.377 80.8788C219.79 81.1329 220.505 81.26 221.522 81.26C224.19 81.26 225.524 79.0997 225.524 74.7792C225.524 70.4269 224.063 68.2508 221.14 68.2508C220.029 68.2508 219.298 68.3779 218.948 68.632C218.567 68.9179 218.377 70.4746 218.377 73.302V90.3617C218.377 91.9819 218.488 93.2844 218.71 94.2692C218.805 94.6504 219.33 94.9522 220.283 95.1746C221.236 95.397 221.951 95.5082 222.427 95.5082C222.554 95.5082 222.618 95.81 222.618 96.4136C222.618 96.7948 222.586 97.0807 222.522 97.2713C218.71 97.0807 216.28 96.9854 215.231 96.9854L208.274 97.2713C208.147 97.1442 208.084 96.8742 208.084 96.4612C208.084 95.8258 208.147 95.5082 208.274 95.5082C208.655 95.5082 209.243 95.397 210.037 95.1746C210.863 94.9522 211.324 94.7139 211.419 94.4598C211.61 93.7291 211.705 92.3313 211.705 90.2664V72.2536C211.705 70.5063 211.61 69.2674 211.419 68.5367C211.324 68.2826 210.847 67.9966 209.99 67.679C209.164 67.3613 208.576 67.2024 208.227 67.2024C208.099 67.2024 208.036 66.9165 208.036 66.3447C208.036 65.8364 208.084 65.5346 208.179 65.4393C211.038 65.5981 213.373 65.6775 215.184 65.6775Z" fill="#2A2727"/>
<path d="M245.396 78.4008C244.157 78.4008 243.251 79.0044 242.679 80.2116C242.108 81.3871 241.822 82.5466 241.822 83.6903C241.822 83.8809 241.933 83.9762 242.155 83.9762H248.207C248.652 83.9762 248.874 83.6744 248.874 83.0708C248.874 81.8636 248.541 80.7835 247.874 79.8304C247.238 78.8773 246.412 78.4008 245.396 78.4008ZM245.634 75.7799C248.493 75.7799 250.78 76.7806 252.496 78.782C254.243 80.7517 255.117 82.769 255.117 84.8339C255.117 85.5646 254.958 86.0411 254.64 86.2635C254.354 86.4859 253.767 86.5971 252.877 86.5971H242.108C241.917 86.5971 241.822 86.7083 241.822 86.9307C241.822 88.6462 242.298 90.1869 243.251 91.553C244.236 92.919 245.634 93.602 247.445 93.602C248.493 93.602 249.494 93.4591 250.447 93.1732C251.4 92.8555 252.067 92.5855 252.448 92.3631C252.83 92.1089 253.338 91.7436 253.973 91.2671C254.259 91.3941 254.402 91.6959 254.402 92.1725C254.402 92.5537 254.339 92.8714 254.211 93.1255C253.894 93.888 252.941 94.7934 251.352 95.8417C249.764 96.8901 247.985 97.4143 246.015 97.4143C243.092 97.4143 240.567 96.35 238.438 94.2215C236.342 92.093 235.293 89.5357 235.293 86.5494C235.293 83.4997 236.246 80.9423 238.152 78.8773C240.059 76.8124 242.552 75.7799 245.634 75.7799Z" fill="#2A2727"/>
<path d="M272.844 75.7799C274.241 75.7799 275.608 76.3676 276.942 77.5431C276.942 79.195 276.735 80.4181 276.322 81.2123C275.941 82.0065 275.226 82.4037 274.178 82.4037C273.543 82.4037 272.812 82.0383 271.986 81.3076C271.16 80.577 270.429 80.2116 269.794 80.2116C268.841 80.2116 268.158 80.7517 267.745 81.8318C267.364 82.8802 267.173 84.008 267.173 85.2152V90.0281C267.173 92.0295 267.284 93.4591 267.507 94.3168C267.57 94.5392 267.983 94.7934 268.746 95.0793C269.54 95.3652 270.064 95.5082 270.318 95.5082C270.413 95.5082 270.461 95.7782 270.461 96.3183C270.493 96.8266 270.477 97.1442 270.413 97.2713C270.032 97.2395 269.063 97.176 267.507 97.0807C265.95 96.9536 264.806 96.8901 264.076 96.8901C263.313 96.8901 262.122 96.9536 260.502 97.0807C258.881 97.176 257.897 97.2395 257.547 97.2713C257.42 97.1442 257.357 96.8266 257.357 96.3183C257.357 95.7782 257.42 95.5082 257.547 95.5082C257.897 95.5082 258.484 95.3652 259.31 95.0793C260.136 94.7934 260.581 94.5392 260.645 94.3168C260.867 93.3638 260.978 92.1566 260.978 90.6952V84.1668C260.978 82.3878 260.692 81.1964 260.12 80.5928C259.898 80.3387 259.564 80.1322 259.12 79.9734C258.675 79.8145 258.294 79.7033 257.976 79.6398C257.658 79.5763 257.499 79.5286 257.499 79.4968C257.499 78.3849 257.579 77.829 257.738 77.829C258.119 77.829 258.754 77.7496 259.644 77.5907C260.533 77.4001 261.693 77.146 263.122 76.8283C264.552 76.5106 265.664 76.2723 266.458 76.1135C266.776 76.0182 266.951 75.9705 266.982 75.9705C267.141 75.9705 267.3 76.0817 267.459 76.3041C267.618 76.4947 267.697 76.6536 267.697 76.7806C267.634 77.1618 267.586 77.5748 267.554 78.0196C267.522 78.4644 267.491 78.7503 267.459 78.8773C269.016 76.8124 270.81 75.7799 272.844 75.7799Z" fill="#2A2727"/>
<path d="M287.759 75.6846C290.555 75.6846 292.62 76.0023 293.954 76.6377C294.272 78.099 294.43 80.0687 294.43 82.5466C294.43 82.8325 294.224 82.9755 293.811 82.9755C292.826 82.9755 292.302 82.8484 292.238 82.5943C291.952 81.26 291.46 80.2116 290.761 79.4492C290.094 78.6867 289.014 78.3055 287.521 78.3055C286.822 78.3055 286.25 78.4802 285.805 78.8297C285.36 79.1474 285.138 79.6239 285.138 80.2593C285.138 80.99 285.456 81.6253 286.091 82.1654C286.726 82.6737 287.664 83.2296 288.903 83.8332C289.76 84.2462 290.428 84.5957 290.904 84.8816C291.412 85.1675 292.064 85.6282 292.858 86.2635C293.684 86.8671 294.287 87.5819 294.669 88.4079C295.082 89.2339 295.288 90.1552 295.288 91.1718C295.288 93.2685 294.478 94.8569 292.858 95.937C291.269 97.0172 289.236 97.5572 286.758 97.5572C285.646 97.5572 284.407 97.3825 283.041 97.033C281.675 96.6836 280.69 96.2547 280.087 95.7464C279.706 93.5544 279.515 91.6165 279.515 89.9328C279.642 89.8375 279.88 89.7898 280.23 89.7898C281.246 89.7898 281.771 89.9328 281.802 90.2187C282.342 93.3638 284.058 94.9363 286.949 94.9363C287.711 94.9363 288.347 94.7616 288.855 94.4121C289.363 94.0627 289.617 93.5703 289.617 92.9349C289.617 92.1407 289.268 91.4736 288.569 90.9335C287.902 90.3934 286.679 89.6786 284.9 88.7891C283.057 87.8996 281.691 86.9307 280.802 85.8823C279.912 84.8022 279.467 83.4838 279.467 81.9271C279.467 79.7669 280.293 78.1943 281.945 77.2095C283.597 76.1929 285.535 75.6846 287.759 75.6846Z" fill="#2A2727"/>
<path d="M311.871 75.8276C314.889 75.8276 317.383 76.8759 319.353 78.9727C321.354 81.0694 322.355 83.4997 322.355 86.2635C322.355 89.7898 321.227 92.5378 318.972 94.5074C316.716 96.4771 313.873 97.4619 310.442 97.4619C310.06 97.4619 309.647 97.4301 309.203 97.3666C308.79 97.3031 308.44 97.2237 308.154 97.1283C307.868 97.0648 307.71 97.033 307.678 97.033C307.551 97.033 307.487 97.2872 307.487 97.7955V100.178C307.487 102.211 307.598 103.657 307.821 104.515C307.884 104.737 308.329 104.991 309.155 105.277C309.981 105.563 310.537 105.706 310.823 105.706C310.918 105.706 310.966 105.96 310.966 106.468C310.998 107.008 310.982 107.342 310.918 107.469C310.569 107.437 309.568 107.358 307.916 107.231C306.296 107.135 305.12 107.088 304.39 107.088C303.627 107.088 302.436 107.135 300.816 107.231C299.196 107.358 298.211 107.437 297.861 107.469C297.734 107.342 297.671 107.008 297.671 106.468C297.671 105.96 297.734 105.706 297.861 105.706C298.211 105.706 298.799 105.563 299.625 105.277C300.45 104.991 300.895 104.737 300.959 104.515C301.181 103.561 301.292 102.354 301.292 100.893V84.1668C301.292 82.3878 301.006 81.1964 300.435 80.5928C300.212 80.3387 299.879 80.1322 299.434 79.9734C298.989 79.8145 298.608 79.7033 298.29 79.6398C297.973 79.5763 297.814 79.5286 297.814 79.4968C297.814 78.3849 297.893 77.829 298.052 77.829C299.99 77.829 302.547 77.3683 305.724 76.4471C306.709 76.1294 307.233 75.9705 307.297 75.9705C307.487 75.9705 307.583 76.177 307.583 76.59C307.583 76.7806 307.551 77.0665 307.487 77.4478C308.885 76.3676 310.346 75.8276 311.871 75.8276ZM311.156 78.5914C310.045 78.5914 309.155 78.925 308.488 79.5921C307.821 80.2593 307.487 81.1011 307.487 82.1177V91.1241C307.487 92.3313 307.884 93.2685 308.679 93.9356C309.473 94.571 310.315 94.8887 311.204 94.8887C314.063 94.8887 315.493 92.5378 315.493 87.8361C315.493 81.673 314.047 78.5914 311.156 78.5914Z" fill="#2A2727"/>
<path d="M334.888 78.4008C333.649 78.4008 332.743 79.0044 332.171 80.2116C331.599 81.3871 331.314 82.5466 331.314 83.6903C331.314 83.8809 331.425 83.9762 331.647 83.9762H337.699C338.144 83.9762 338.366 83.6744 338.366 83.0708C338.366 81.8636 338.033 80.7835 337.365 79.8304C336.73 78.8773 335.904 78.4008 334.888 78.4008ZM335.126 75.7799C337.985 75.7799 340.272 76.7806 341.988 78.782C343.735 80.7517 344.609 82.769 344.609 84.8339C344.609 85.5646 344.45 86.0411 344.132 86.2635C343.846 86.4859 343.259 86.5971 342.369 86.5971H331.6C331.409 86.5971 331.314 86.7083 331.314 86.9307C331.314 88.6462 331.79 90.1869 332.743 91.553C333.728 92.919 335.126 93.602 336.937 93.602C337.985 93.602 338.986 93.4591 339.939 93.1732C340.892 92.8555 341.559 92.5855 341.94 92.3631C342.321 92.1089 342.83 91.7436 343.465 91.2671C343.751 91.3941 343.894 91.6959 343.894 92.1725C343.894 92.5537 343.83 92.8714 343.703 93.1255C343.386 93.888 342.433 94.7934 340.844 95.8417C339.256 96.8901 337.477 97.4143 335.507 97.4143C332.584 97.4143 330.059 96.35 327.93 94.2215C325.834 92.093 324.785 89.5357 324.785 86.5494C324.785 83.4997 325.738 80.9423 327.644 78.8773C329.55 76.8124 332.044 75.7799 335.126 75.7799Z" fill="#2A2727"/>
<path d="M358.19 75.7799C359.556 75.7799 360.827 75.9864 362.002 76.3994C363.209 76.8124 364.051 77.2095 364.528 77.5907C365.004 77.9402 365.369 78.2737 365.624 78.5914C365.624 81.5141 364.766 82.9755 363.05 82.9755C361.811 82.9755 360.874 82.1813 360.239 80.5928C359.953 79.8622 359.588 79.3221 359.143 78.9727C358.73 78.5914 358.142 78.4008 357.38 78.4008C354.838 78.4008 353.567 80.7835 353.567 85.5487C353.567 90.9176 355.362 93.602 358.952 93.602C360.001 93.602 361.001 93.4591 361.954 93.1732C362.907 92.8555 363.575 92.5855 363.956 92.3631C364.337 92.1089 364.845 91.7436 365.481 91.2671C365.767 91.3941 365.909 91.6959 365.909 92.1725C365.909 92.5537 365.846 92.8714 365.719 93.1255C365.401 93.9197 364.448 94.841 362.86 95.8894C361.303 96.906 359.54 97.4143 357.57 97.4143C354.52 97.4143 351.963 96.35 349.898 94.2215C347.833 92.0613 346.801 89.4245 346.801 86.3112C346.801 83.3885 347.897 80.9105 350.089 78.8773C352.313 76.8124 355.013 75.7799 358.19 75.7799Z" fill="#2A2727"/>
<path d="M372.2 79.4492H369.102C368.848 79.4492 368.721 78.9568 368.721 77.9719C368.721 77.7178 368.753 77.5431 368.816 77.4478C370.595 76.5582 372.025 75.7005 373.105 74.8745C373.582 74.5251 374.138 74.0803 374.773 73.5402C375.408 72.9684 375.948 72.4919 376.393 72.1107C376.87 71.6977 377.124 71.4753 377.156 71.4435C377.41 71.4435 377.68 71.5071 377.966 71.6341C378.252 71.7294 378.394 71.8406 378.394 71.9677V76.6377H383.541C383.795 76.6377 383.922 76.7965 383.922 77.1142C383.922 78.0355 383.763 78.8138 383.446 79.4492H378.394V90.7429C378.394 93.1573 379.252 94.3645 380.968 94.3645C381.444 94.3645 381.873 94.3168 382.254 94.2215C382.667 94.0945 382.985 93.9674 383.207 93.8403C383.43 93.7132 383.557 93.6497 383.589 93.6497C383.716 93.6497 383.843 93.8085 383.97 94.1262C384.129 94.4439 384.208 94.6822 384.208 94.841C384.208 95.2222 383.557 95.7464 382.254 96.4136C380.952 97.0807 379.729 97.4143 378.585 97.4143C376.838 97.4143 375.329 96.8742 374.058 95.7941C372.819 94.6822 372.2 92.9031 372.2 90.457V79.4492Z" fill="#2A2727"/>
<path d="M390.451 70.2522C389.752 69.5533 389.402 68.7114 389.402 67.7266C389.402 66.7418 389.752 65.9158 390.451 65.2487C391.15 64.5498 391.976 64.2003 392.929 64.2003C393.913 64.2003 394.739 64.5498 395.407 65.2487C396.105 65.9158 396.455 66.7418 396.455 67.7266C396.455 68.7114 396.105 69.5533 395.407 70.2522C394.739 70.9193 393.913 71.2529 392.929 71.2529C391.976 71.2529 391.15 70.9193 390.451 70.2522ZM396.455 89.9804C396.455 92.0136 396.566 93.4591 396.788 94.3168C396.852 94.5392 397.297 94.7934 398.123 95.0793C398.98 95.3652 399.536 95.5082 399.791 95.5082C399.918 95.5082 399.981 95.7782 399.981 96.3183C399.981 96.8266 399.949 97.1442 399.886 97.2713C399.568 97.2395 398.583 97.176 396.931 97.0807C395.279 96.9536 394.088 96.8901 393.357 96.8901C392.595 96.8901 391.404 96.9536 389.784 97.0807C388.195 97.176 387.21 97.2395 386.829 97.2713C386.734 97.1442 386.686 96.8266 386.686 96.3183C386.686 95.7782 386.734 95.5082 386.829 95.5082C387.21 95.5082 387.798 95.3652 388.592 95.0793C389.418 94.7934 389.863 94.5392 389.926 94.3168C390.149 93.3638 390.26 92.1566 390.26 90.6952V84.1668C390.26 82.3878 389.974 81.1964 389.402 80.5928C389.18 80.3387 388.846 80.1322 388.402 79.9734C387.989 79.8145 387.607 79.7033 387.258 79.6398C386.94 79.5763 386.781 79.5286 386.781 79.4968C386.781 78.3849 386.861 77.829 387.02 77.829C387.655 77.829 389.037 77.6225 391.165 77.2095C393.326 76.7647 394.851 76.3994 395.74 76.1135C395.772 76.1135 395.867 76.0976 396.026 76.0658C396.185 76.0023 396.264 75.9705 396.264 75.9705C396.455 75.9705 396.614 76.0817 396.741 76.3041C396.9 76.4947 396.979 76.6536 396.979 76.7806C396.947 77.0348 396.884 77.5113 396.788 78.2102C396.693 78.9091 396.614 79.5286 396.55 80.0687C396.487 80.577 396.455 81.0694 396.455 81.5459V89.9804Z" fill="#2A2727"/>
<path d="M420.091 78.7344C419.424 78.0672 418.375 77.7337 416.946 77.7337C416.85 77.7019 416.803 77.4478 416.803 76.9712C416.803 76.4947 416.834 76.1611 416.898 75.9705C417.374 76.0023 418.232 76.0817 419.471 76.2088C420.742 76.3041 421.727 76.3518 422.426 76.3518C423.188 76.3518 424.157 76.3041 425.332 76.2088C426.54 76.0817 427.397 76.0023 427.906 75.9705C428.033 76.0976 428.096 76.3676 428.096 76.7806C428.096 77.416 428.033 77.7337 427.906 77.7337C427.429 77.7337 426.762 77.9084 425.904 78.2579C425.047 78.5755 424.459 79.0362 424.141 79.6398L415.754 96.2229C415.278 97.1442 414.801 97.6049 414.325 97.6049C413.943 97.6049 413.689 97.4778 413.562 97.2237L405.652 79.4015C405.398 78.7979 404.889 78.3691 404.127 78.1149C403.396 77.8608 402.793 77.7337 402.316 77.7337C402.189 77.7337 402.126 77.416 402.126 76.7806C402.126 76.3994 402.189 76.1294 402.316 75.9705C402.666 76.0023 403.65 76.0817 405.271 76.2088C406.923 76.3041 408.114 76.3518 408.845 76.3518C409.639 76.3518 410.894 76.2882 412.609 76.1611C414.356 76.0341 415.373 75.9705 415.659 75.9705C415.786 76.0976 415.85 76.4312 415.85 76.9712C415.85 77.4795 415.786 77.7337 415.659 77.7337C415.182 77.7337 414.515 77.8608 413.658 78.1149C412.832 78.3691 412.419 78.6709 412.419 79.0203L412.514 79.7351L416.278 88.6938L420.043 80.7835C420.52 79.8622 420.535 79.1791 420.091 78.7344Z" fill="#2A2727"/>
<path d="M440.724 78.4008C439.485 78.4008 438.58 79.0044 438.008 80.2116C437.436 81.3871 437.15 82.5466 437.15 83.6903C437.15 83.8809 437.261 83.9762 437.484 83.9762H443.536C443.981 83.9762 444.203 83.6744 444.203 83.0708C444.203 81.8636 443.869 80.7835 443.202 79.8304C442.567 78.8773 441.741 78.4008 440.724 78.4008ZM440.963 75.7799C443.822 75.7799 446.109 76.7806 447.825 78.782C449.572 80.7517 450.445 82.769 450.445 84.8339C450.445 85.5646 450.287 86.0411 449.969 86.2635C449.683 86.4859 449.095 86.5971 448.206 86.5971H437.436C437.246 86.5971 437.15 86.7083 437.15 86.9307C437.15 88.6462 437.627 90.1869 438.58 91.553C439.565 92.919 440.963 93.602 442.773 93.602C443.822 93.602 444.822 93.4591 445.775 93.1732C446.729 92.8555 447.396 92.5855 447.777 92.3631C448.158 92.1089 448.666 91.7436 449.302 91.2671C449.588 91.3941 449.731 91.6959 449.731 92.1725C449.731 92.5537 449.667 92.8714 449.54 93.1255C449.222 93.888 448.269 94.7934 446.681 95.8417C445.092 96.8901 443.313 97.4143 441.344 97.4143C438.421 97.4143 435.895 96.35 433.767 94.2215C431.67 92.093 430.622 89.5357 430.622 86.5494C430.622 83.4997 431.575 80.9423 433.481 78.8773C435.387 76.8124 437.881 75.7799 440.963 75.7799Z" fill="#2A2727"/>
<path fill-rule="evenodd" clip-rule="evenodd" d="M14.4452 97.4156C22.3144 108.638 30.2008 115.065 54.2539 120.164C88.2217 125.321 110.154 102.97 115.488 78.8169C118.158 66.7321 116.62 54.3739 110.494 44.9037C104.413 35.5015 93.6504 28.6944 77.2997 27.9129C60.787 27.1237 48.6417 31.4021 40.3861 38.0681C32.1203 44.7423 27.6113 53.9214 26.555 63.2039C25.4968 72.5034 27.9102 81.8367 33.4038 88.8124C38.8647 95.7467 47.4545 100.466 59.0463 100.466C82.5336 100.466 94.7948 86.7415 96.7316 73.473C97.7074 66.7877 96.0865 60.202 92.003 55.3097C87.9441 50.4469 81.2849 47.0582 71.7776 47.0582C64.2563 47.0582 58.9653 49.2872 55.5229 52.4306C52.0708 55.583 50.3302 59.7866 50.1356 64.0158C49.7445 72.5155 55.5222 80.7897 65.9906 80.7897C69.9101 80.7897 72.5088 79.7075 74.0741 78.3248C75.6292 76.9513 76.308 75.1641 76.232 73.3842C76.0833 69.8988 72.8744 65.8082 65.9906 65.8082C64.8861 65.8082 62.9906 64.9127 62.9906 63.8082C62.9906 62.7036 63.8822 60.8082 65.9906 60.8082C74.6162 60.8082 78.3673 66.2976 78.6236 72.3029C78.7502 75.2683 77.9192 77.0922 75.6656 79.6796C73.2017 81.8559 70.636 82.7897 65.9906 82.7897C52.8481 82.7897 45.6629 73.1981 46.1398 62.832C46.3793 57.6284 48.5304 52.3991 52.8256 48.4768C57.1307 44.5456 63.4425 41.0582 71.7776 41.0582C82.2936 41.0582 90.1483 45.8454 95.0738 51.7465C99.9747 57.618 100.809 65.3842 99.6896 73.0507C96.7316 88.8124 85.2605 102.131 59.9978 102.131C48.4503 102.131 38.3145 97.5369 30.8504 89.9118C24.6426 82.029 21.4151 72.9939 22.5807 62.7516C23.7481 52.4924 28.7384 41.3318 37.8732 33.956C47.0181 26.5719 60.1746 21.0899 77.4907 21.9175C94.9689 22.7529 106.989 31.1182 113.853 41.7313C120.674 52.2764 122.244 66.7762 119.394 79.6796C113.691 105.502 88.278 125.33 54.2539 120.164C30.8504 115.203 20.2106 109.623 11.6505 97.4156C3.10669 85.231 -1.23981 71.4868 1.30419 56.9629C6.4098 27.8146 33.2194 -1.10733 79.4009 0.244071C80.505 0.27638 83.3415 1.23043 83.3415 4.30172C83.3092 5.40581 81.388 7.27467 80.2839 7.24236C35.9273 5.94436 10.9798 31.6171 6.2442 58.653C3.8676 72.2212 6.55986 86.1701 14.4452 97.4156Z" fill="black"/>
</svg>
